# xmcd CD database file
#
# Track frame offsets:
#	150
#	21975
#	42550
#	73457
#	95465
#	122700
#	132682
#	151030
#	174502
#	204425
#	229500
#	250787
#
# Disc length: 3584 seconds
#
# Revision: 0
# Processed by: cddbd v1.5.2PL0 Copyright (c) Steve Scherf et al.
# Submitted via: CDex 1.51
#
DISCID=a70dfe0c
DTITLE=Ian Cooper - Ian Cooper, Soundpost
DYEAR=1900
DGENRE=Jazz
TTITLE0=Annie (Ian Cooper)
TTITLE1=Sweet Georgia Brown (B. Bernie, H. Pinkard, K. Casey)
TTITLE2=A Fine Romance (J. Kern, D. Fileds)
TTITLE3=Ain't Misbehavin' (F. Waller)
TTITLE4=Misty (E. Garner, J. Bourke)
TTITLE5=Djangology (D. Reinhardt, S. Grappelli)
TTITLE6=It Don't Mean A Thing (D. Ellington, I. Mills)
TTITLE7=Daphne (D. Reinhart, S. Grappelli)
TTITLE8=Black Orpheus (L. Bonfa)
TTITLE9=All Of Me (S. Simons, G. Marks)
TTITLE10=Billie's Bounce (C. Parker)
TTITLE11=Summertime (G. Gershwin, D. Heyward)
EXTD=
EXTT0=
EXTT1=
EXTT2=
EXTT3=
EXTT4=
EXTT5=
EXTT6=
EXTT7=
EXTT8=
EXTT9=
EXTT10=
EXTT11=
PLAYORDER=
